<?xml version="1.0" encoding="iso-8859-1"?>
<!-- Generator: Adobe Illustrator 19.0.0, SVG Export Plug-In . SVG Version: 6.00 Build 0)  -->
<svg xmlns="http://www.w3.org/2000/svg" xmlns:xlink="http://www.w3.org/1999/xlink" version="1.1" id="Layer_1" x="0px" y="0px" viewBox="0 0 503.664 503.664" style="enable-background:new 0 0 503.664 503.664;" xml:space="preserve" width="512px" height="512px">
<g>
	<g>
		<path d="M473.288,301.996h-1.14v-41.512c0-121.372-98.944-220.124-220.324-220.124c-121.372,0-220.32,98.752-220.32,220.124    v41.512h-1.136C13.624,301.996,0,314.52,0,331.272l0.064,77.624c0,16.752,13.624,30.8,30.368,30.8h2.072    c3.116,15.736,15.18,23.6,29.572,23.6h16.672c16.744,0,31.452-15.632,31.452-32.392V307.58c0-16.996-14.992-29.192-31.452-29.192    h-3.964V257.32c0-97.892,79.152-177.54,177.048-177.54c97.888,0,177.044,79.648,177.044,177.54v21.068h-3.96    c-16.46,0-31.452,12.196-31.452,29.192v123.332c0,16.756,14.704,32.392,31.452,32.392h16.672c14.392,0,26.452-7.868,29.572-23.6    h2.072c16.752,0,30.368-14.6,30.368-31.352l0.064-76.592C503.656,315.012,490.04,301.996,473.288,301.996z" fill="#4e524b"/>
	</g>
</g>
<g>
</g>
<g>
</g>
<g>
</g>
<g>
</g>
<g>
</g>
<g>
</g>
<g>
</g>
<g>
</g>
<g>
</g>
<g>
</g>
<g>
</g>
<g>
</g>
<g>
</g>
<g>
</g>
<g>
</g>
</svg>
