<?xml version="1.0" encoding="iso-8859-1"?>
<!-- Generator: Adobe Illustrator 19.0.0, SVG Export Plug-In . SVG Version: 6.00 Build 0)  -->
<svg version="1.1" id="Layer_1" xmlns="http://www.w3.org/2000/svg" xmlns:xlink="http://www.w3.org/1999/xlink" x="0px" y="0px"
	 viewBox="0 0 506.656 506.656" style="enable-background:new 0 0 506.656 506.656;" xml:space="preserve">
<g>
	<g>
		<path d="M415.508,182.084h0.108V152.76c11.876-3.984,19.732-15.136,19.732-28.072c0-16.28-13.476-29.688-29.756-29.688h-26.508
			c-3.376-11.876-14.032-19.792-26.648-19.792H312.7V43.54C312.7,19.532,293.576,0,269.56,0h-31.6
			c-24.008,0-44.008,19.532-44.008,43.54v31.668h-38.964c-12.616,0-23.276,7.916-26.648,19.792h-27.232
			c-16.276,0-29.78,13.408-29.78,29.688c0,12.932,7.832,24.084,19.708,28.072v29.324h0.16c-15.28,0-27.868,12.428-27.868,27.708
			v75.212c0,2.188,1.932,3.956,4.116,3.956h71.312c2.184,0,3.74-1.768,3.74-3.956v-75.216c0-15.276-12.208-27.708-27.488-27.708
			h-0.22v-27.708h14.96c4.208,10.084,13.136,18.524,23.616,20.952l32.676,7.62v59.04c-15.832,2.116-31.44,17.036-31.44,35.092
			c0,15.464,11.648,28.616,23.52,33.416v23.98c0,0.248,0.536,0.464,0.58,0.7c-3.716,3.22-5.9,7.912-5.9,13.2
			c0,5.26,2.048,9.932,5.732,13.144c-0.016,0.148-0.416,0.272-0.416,0.416v25.976h0.364c-24.012,0-43.904,19.536-43.904,43.544
			v47.524c0,0.06-3.96,1.784-3.96,3.932V502.7c0,2.188,2.244,3.956,4.424,3.956h110.584c2.184,0,3.74-1.768,3.74-3.956v-19.792
			c0-2,0-3.584-3.956-3.852v-47.604c0-24.008-18.796-43.544-42.8-43.544h-0.744v-25.976c0-0.144,0.044-0.268,0.024-0.416
			c3.688-3.212,6.12-7.884,6.12-13.144c0-5.288-2.484-9.98-6.2-13.2c0.04-0.236,0.056-0.448,0.056-0.7v-21.768h24.032
			c2.184,0,3.676-2.02,3.676-4.208v-15.584h47.5v15.584c0,2.188,2.156,4.208,4.344,4.208h23.364v21.768
			c0,0.248,0.372,0.464,0.416,0.696c-3.72,3.224-5.984,7.912-5.984,13.204c0,5.26,2.172,9.932,5.86,13.144
			c-0.016,0.148-0.292,0.272-0.292,0.416v25.976h0.032c-24.008,0-43.572,19.536-43.572,43.544v47.524
			c-3.96,0.06-3.96,1.784-3.96,3.932V502.7c0,2.188,1.908,3.956,4.096,3.956h110.588c2.184,0,4.068-1.768,4.068-3.956v-19.792
			c0-2,0-3.584-3.956-3.852v-47.604c0-24.008-19.12-43.544-43.132-43.544h-0.412v-25.976c0-0.144-0.12-0.268-0.136-0.416
			c3.684-3.212,6.036-7.884,6.036-13.144c0-5.292-2.364-9.98-6.08-13.204c0.044-0.232,0.18-0.444,0.18-0.696v-24.02
			c11.876-4.828,23.536-17.948,23.536-33.376c0-18.1-11.66-33.052-31.448-35.112v-58.912l33.18-7.704
			c10.476-2.44,19.668-10.888,23.884-20.972h14.188v27.708H391.7c-15.28,0-27.54,12.428-27.54,27.708v75.212
			c0,2.188,1.6,3.956,3.788,3.956h71.312c2.184,0,4.068-1.768,4.068-3.956v-75.216C443.324,194.512,430.784,182.084,415.508,182.084
			z M253.712,163.092c-15.304,0-27.708-12.404-27.708-27.708c0-15.3,12.404-27.712,27.708-27.712
			c15.3,0,27.708,12.412,27.708,27.712C281.416,150.692,269.012,163.092,253.712,163.092z M289.144,51.456h-71.1
			c-4.372,0-7.916-3.544-7.916-7.916s3.544-7.916,7.916-7.916h71.1c4.376,0,7.916,3.544,7.916,7.916
			C297.064,47.916,293.52,51.456,289.144,51.456z"/>
	</g>
</g>
<g>
</g>
<g>
</g>
<g>
</g>
<g>
</g>
<g>
</g>
<g>
</g>
<g>
</g>
<g>
</g>
<g>
</g>
<g>
</g>
<g>
</g>
<g>
</g>
<g>
</g>
<g>
</g>
<g>
</g>
</svg>
