<svg xmlns="http://www.w3.org/2000/svg" xmlns:xlink="http://www.w3.org/1999/xlink" version="1.1" x="0px" y="0px" viewBox="0 0 100 125" enable-background="new 0 0 100 100" xml:space="preserve"><g><path fill="none" d="M53.28,80.484l10.248-10.282l2.154-11.062c-2.952,2.4-6.136,4.625-9.545,6.668L53.28,80.484z"/><path fill="none" d="M66.772,29.509c-0.993,0-1.926,0.387-2.628,1.089c-0.703,0.702-1.089,1.636-1.089,2.629   c0,0.993,0.386,1.927,1.089,2.629c0.702,0.702,1.635,1.089,2.628,1.089c0.994,0,1.926-0.387,2.629-1.089   c1.449-1.45,1.449-3.808,0-5.257C68.699,29.896,67.765,29.509,66.772,29.509z"/><path fill="none" d="M40.86,34.318l-11.062,2.154L19.516,46.72l14.676-2.858C36.235,40.454,38.461,37.269,40.86,34.318z"/><path fill="none" d="M49.311,32.068c-4.312,4.312-8.144,9.333-11.462,15.003c-0.05,0.1-0.106,0.197-0.17,0.29   c-1.76,3.035-3.372,6.255-4.833,9.651l3.382,3.382l6.827-6.826c0.934-0.933,2.447-0.933,3.38,0c0.933,0.933,0.933,2.447,0,3.38   l-6.827,6.826l3.382,3.383c3.395-1.461,6.615-3.073,9.649-4.833c0.092-0.065,0.192-0.122,0.292-0.172   c5.67-3.318,10.69-7.15,15.001-11.461c9.365-9.366,14.928-20.713,17.946-28.582c1.834-4.782,2.977-8.898,3.633-11.62   c-2.722,0.656-6.837,1.799-11.619,3.634C70.022,17.14,58.676,22.703,49.311,32.068z M72.781,39.236   c-1.605,1.605-3.739,2.489-6.009,2.489s-4.404-0.884-6.009-2.489s-2.489-3.739-2.489-6.009s0.884-4.404,2.489-6.009   s3.739-2.489,6.009-2.489s4.404,0.884,6.009,2.489s2.489,3.739,2.489,6.009S74.386,37.631,72.781,39.236z"/><path d="M66.772,24.73c-2.269,0-4.404,0.884-6.009,2.489s-2.489,3.739-2.489,6.009s0.884,4.404,2.489,6.009   s3.739,2.489,6.009,2.489s4.404-0.884,6.009-2.489s2.489-3.739,2.489-6.009s-0.884-4.404-2.489-6.009S69.042,24.73,66.772,24.73z    M69.402,35.856c-0.703,0.702-1.635,1.089-2.629,1.089c-0.993,0-1.926-0.387-2.628-1.089c-0.703-0.702-1.089-1.635-1.089-2.629   c0-0.993,0.386-1.927,1.089-2.629c0.702-0.702,1.635-1.089,2.628-1.089s1.926,0.387,2.629,1.089   C70.851,32.048,70.851,34.406,69.402,35.856z"/><path d="M22.9,64.149c0.933-0.933,0.933-2.447,0-3.38c-0.933-0.933-2.447-0.933-3.38,0L5.7,74.589c-0.933,0.933-0.933,2.447,0,3.38   c0.467,0.467,1.078,0.7,1.69,0.7c0.612,0,1.223-0.233,1.69-0.7L22.9,64.149z"/><path d="M26.574,73.426c-0.933-0.933-2.446-0.933-3.379,0L8.79,87.831c-0.934,0.933-0.934,2.446,0,3.379   c0.467,0.467,1.078,0.7,1.69,0.7c0.612,0,1.224-0.234,1.69-0.7l14.404-14.404C27.507,75.873,27.507,74.36,26.574,73.426z"/><path d="M35.852,77.101l-13.82,13.82c-0.934,0.933-0.934,2.447,0,3.38C22.498,94.767,23.11,95,23.721,95   c0.612,0,1.224-0.233,1.69-0.699l13.82-13.82c0.933-0.933,0.933-2.447,0-3.38C38.298,76.167,36.785,76.168,35.852,77.101z"/><path d="M94.3,5.701c-0.542-0.543-1.313-0.792-2.07-0.67c-0.277,0.045-6.902,1.133-15.929,4.582   c-5.296,2.023-10.327,4.446-14.954,7.201c-5.683,3.384-10.77,7.283-15.128,11.591l-18.05,3.514   c-0.466,0.091-0.894,0.318-1.231,0.654l-16.352,16.3c-0.745,0.742-0.917,1.885-0.424,2.813c0.421,0.791,1.239,1.269,2.11,1.269   c0.152,0,0.304-0.014,0.458-0.043l18.445-3.592c-1.201,2.356-2.325,4.802-3.367,7.336c-0.367,0.892-0.161,1.917,0.52,2.599   l4.518,4.518l-4.198,4.198c-0.933,0.933-0.933,2.447,0,3.38c0.467,0.467,1.078,0.7,1.69,0.7c0.611,0,1.223-0.233,1.69-0.7   l4.198-4.198l4.518,4.518c0.458,0.457,1.069,0.7,1.69,0.7c0.306,0,0.615-0.059,0.909-0.18c2.535-1.042,4.98-2.166,7.335-3.366   L47.09,87.271c-0.201,1.032,0.296,2.074,1.225,2.567c0.354,0.188,0.739,0.279,1.12,0.279c0.62,0,1.233-0.242,1.693-0.703   l16.3-16.352c0.335-0.336,0.563-0.765,0.654-1.231l3.513-18.049c4.309-4.359,8.209-9.445,11.593-15.129   c2.755-4.628,5.177-9.659,7.201-14.955c3.448-9.028,4.536-15.651,4.582-15.929C95.091,7.012,94.842,6.242,94.3,5.701z    M19.516,46.72l10.282-10.248l11.062-2.154c-2.399,2.951-4.624,6.136-6.668,9.545L19.516,46.72z M63.528,70.203L53.28,80.484   l2.857-14.676c3.41-2.043,6.593-4.268,9.545-6.668L63.528,70.203z M85.878,22.108c-3.018,7.869-8.582,19.216-17.946,28.582   c-4.311,4.311-9.332,8.143-15.001,11.461c-0.101,0.05-0.2,0.108-0.292,0.172c-3.035,1.759-6.254,3.372-9.649,4.833l-3.382-3.383   l6.827-6.826c0.933-0.933,0.933-2.447,0-3.38c-0.933-0.933-2.447-0.933-3.38,0l-6.827,6.826l-3.382-3.382   c1.461-3.396,3.073-6.615,4.833-9.651c0.064-0.092,0.12-0.19,0.17-0.29c3.318-5.67,7.15-10.691,11.462-15.003   c9.366-9.365,20.712-14.928,28.582-17.946c4.782-1.834,8.897-2.978,11.619-3.634C88.855,13.21,87.712,17.326,85.878,22.108z"/></g><text x="0" y="115" fill="#000000" font-size="5px" font-weight="bold" font-family="'Helvetica Neue', Helvetica, Arial-Unicode, Arial, Sans-serif">Created by Vladimir Belochkin</text><text x="0" y="120" fill="#000000" font-size="5px" font-weight="bold" font-family="'Helvetica Neue', Helvetica, Arial-Unicode, Arial, Sans-serif">from the Noun Project</text></svg>